<?xml version="1.0" ?><svg xmlns="http://www.w3.org/2000/svg" xmlns:xlink="http://www.w3.org/1999/xlink" version="1.1" viewBox="0 0 512 512" style="enable-background:new 0 0 512 512;" xml:space="preserve"><g id="_x32_5_Exam_Preparation"><g><g><g><path d="M426.913,408.356c-1.827,1.25-3.846,2.307-6.057,3.125l-239.433,87.967c-3.173,1.154-6.441,1.682-9.662,1.682      c-11.489,0-22.256-7.066-26.438-18.411L30.966,171.422c-2.596-7.066-2.259-14.709,0.866-21.535      c3.172-6.778,8.796-11.969,15.863-14.565l114.068-41.917v277.216c0,20.814,16.921,37.734,37.734,37.734H426.913z"/></g></g><g><path d="M271.473,180.429h-50.618c-2.61,0-4.732,2.122-4.732,4.732v50.618c0,2.61,2.122,4.732,4.732,4.732h50.618     c2.61,0,4.732-2.122,4.732-4.732v-50.618C276.205,182.551,274.083,180.429,271.473,180.429z M261.075,206.651l-18.542,15.092     c-0.859,0.704-1.934,1.08-3.033,1.08c-0.178,0-0.357-0.009-0.535-0.028c-1.286-0.146-2.455-0.798-3.248-1.817l-5.215-6.666     c-1.638-2.089-1.267-5.112,0.822-6.746c2.089-1.648,5.117-1.267,6.746,0.822l2.197,2.807l14.745-11.999     c2.065-1.681,5.089-1.361,6.76,0.695C263.446,201.948,263.136,204.976,261.075,206.651z"/><path d="M271.473,75.376h-50.618c-2.61,0-4.732,2.122-4.732,4.732v50.618c0,2.61,2.122,4.732,4.732,4.732h50.618     c2.61,0,4.732-2.122,4.732-4.732V80.108C276.205,77.498,274.083,75.376,271.473,75.376z M261.075,101.598l-18.542,15.092     c-0.859,0.704-1.934,1.08-3.033,1.08c-0.178,0-0.357-0.009-0.535-0.028c-1.282-0.146-2.455-0.798-3.248-1.817l-5.215-6.661     c-1.638-2.089-1.272-5.112,0.822-6.746c2.089-1.648,5.107-1.267,6.746,0.821l2.197,2.802l14.745-11.999     c2.065-1.681,5.089-1.361,6.76,0.695C263.446,96.895,263.136,99.922,261.075,101.598z"/><path d="M393.454,82.685c0,9.886,8.041,17.927,17.927,17.927h68.556l-27.163-27.3c-19.773-19.915-39.547-39.782-59.321-59.65     V82.685z"/><path d="M271.473,285.482h-50.618c-2.61,0-4.732,2.122-4.732,4.732v50.618c0,2.61,2.122,4.732,4.732,4.732h50.618     c2.61,0,4.732-2.122,4.732-4.732v-50.618C276.205,287.604,274.083,285.482,271.473,285.482z M261.075,311.705l-18.542,15.092     c-0.859,0.704-1.934,1.08-3.033,1.08c-0.178,0-0.357-0.009-0.535-0.028c-1.286-0.146-2.455-0.798-3.248-1.817l-5.215-6.666     c-1.638-2.089-1.267-5.112,0.822-6.746c2.089-1.643,5.117-1.267,6.746,0.822l2.197,2.807l14.745-11.999     c2.065-1.681,5.089-1.361,6.76,0.695C263.446,307.001,263.136,310.029,261.075,311.705z"/><path d="M411.381,110.226c-13.751,0-25.147-10.141-27.185-23.331h-66.983c-2.657,0-4.807-2.15-4.807-4.807     c0-2.657,2.15-4.807,4.807-4.807h66.626V10.87H199.497c-15.478,0-28.12,12.594-28.12,28.12v331.631     c0,15.478,12.642,28.12,28.12,28.12h255.104c15.527,0,28.169-12.642,28.169-28.12V110.226H411.381z M328.94,123.938h47.98     c2.657,0,4.807,2.15,4.807,4.807c0,2.657-2.15,4.807-4.807,4.807h-47.98c-2.657,0-4.807-2.15-4.807-4.807     C324.134,126.088,326.284,123.938,328.94,123.938z M285.819,340.833c0,7.91-6.436,14.346-14.346,14.346h-50.618     c-7.91,0-14.346-6.436-14.346-14.346v-50.618c0-7.91,6.436-14.346,14.346-14.346h50.618c7.91,0,14.346,6.436,14.346,14.346     V340.833z M285.819,235.779c0,7.91-6.436,14.346-14.346,14.346h-50.618c-7.91,0-14.346-6.436-14.346-14.346v-50.618     c0-7.91,6.436-14.346,14.346-14.346h50.618c7.91,0,14.346,6.436,14.346,14.346V235.779z M285.819,130.726     c0,7.91-6.436,14.346-14.346,14.346h-50.618c-7.91,0-14.346-6.436-14.346-14.346V80.108c0-7.91,6.436-14.346,14.346-14.346     h50.618c7.91,0,14.346,6.436,14.346,14.346V130.726z M429.21,343.114h-90.003c-2.657,0-4.807-2.15-4.807-4.807     s2.15-4.807,4.807-4.807h90.003c2.657,0,4.807,2.15,4.807,4.807S431.867,343.114,429.21,343.114z M451.203,296.462H317.214     c-2.657,0-4.807-2.15-4.807-4.807c0-2.657,2.15-4.807,4.807-4.807h133.989c2.657,0,4.807,2.15,4.807,4.807     C456.01,294.312,453.86,296.462,451.203,296.462z M334.4,233.798c0-2.657,2.15-4.807,4.807-4.807h90.003     c2.657,0,4.807,2.15,4.807,4.807c0,2.657-2.15,4.807-4.807,4.807h-90.003C336.55,238.605,334.4,236.455,334.4,233.798z      M451.203,191.949H317.214c-2.657,0-4.807-2.15-4.807-4.807c0-2.657,2.15-4.807,4.807-4.807h133.989     c2.657,0,4.807,2.15,4.807,4.807C456.01,189.799,453.86,191.949,451.203,191.949z"/></g></g></g><g id="Layer_1"/></svg>